538 bytes → 446 bytes 82.9%

<svg xmlns="http://www.w3.org/2000/svg" viewBox="0 0 540 691.167" xml:space="preserve"><path d="m531.236.015-261.28 692.122L7.591-.787h64.825l197.351 519.682C271.466 514.46 465.656.015 465.656.015h65.58z"/><path class="logo-circle" d="M337.625 137.267c0 17.834-14.457 32.292-32.292 32.292s-32.292-14.457-32.292-32.292 14.457-32.292 32.292-32.292 32.292 14.458 32.292 32.292z"/><path d="M404.201 61.348h-203.41l50.482 128.753a29.208 29.208 0 0 0-5.85 17.598c0 16.324 13.257 29.582 29.629 29.582a29.415 29.415 0 0 0 25.477-14.626v35.243h-88.556L110.867.015h316.621l-23.287 61.333zM247.687 180.941l12.063 29.725s-2.875 3.75-3.25 3.75-21.375-8.375-21.25-8.875 1.375-15.125 2.375-16.625 10.062-7.975 10.062-7.975zM330 257.898H223.333v-52.065H349.79L330 257.898z"/></svg>